<?xml version="1.0" ?><!DOCTYPE svg  PUBLIC '-//W3C//DTD SVG 1.1//EN'  'http://www.w3.org/Graphics/SVG/1.1/DTD/svg11.dtd'><svg enable-background="new 0 0 24 24" height="24px" id="Layer_1" version="1.1" viewBox="0 0 24 24" width="24px" xml:space="preserve" xmlns="http://www.w3.org/2000/svg" xmlns:xlink="http://www.w3.org/1999/xlink"><path d="M19,0c-2.8,0-5,2.2-5,5c0,0.7,0.2,1.4,0.4,2H7.9C7.1,6.4,6.1,6,5,6c-2.8,0-5,2.2-5,5c0,2.4,2,4.4,4,4.9V21h2v-5.1  c2-0.3,2.9-1.4,3.5-2.9H10c2.8,0,5,2.2,5,5s-2.2,5-5,5H0v1h10c3.3,0,6-2.7,6-6s-2.7-6-6-6H9.9c0.1-0.3,0.1-0.7,0.1-1  c0-1.1-0.4-2.2-1-3h6c0.7,1,2,1.7,3,1.9V15h2V9.9c2-0.5,4-2.5,4-4.9C24,2.2,21.7,0,19,0z M5,14c-1.7,0-3-1.3-3-3s1.3-3,3-3  s3,1.3,3,3S6.6,14,5,14z M19,8c-1.7,0-3-1.3-3-3s1.3-3,3-3s3,1.3,3,3S20.6,8,19,8z"/></svg>